<svg xmlns="http://www.w3.org/2000/svg" width="900" height="430" viewBox="0 0 900 430" font-family="system-ui, 'Noto Sans SC', 'Microsoft YaHei', sans-serif" role="img" aria-label="五个系统的运行中输入调度比较矩阵"><rect width="900" height="430" fill="#ffffff"/><text x="40" y="34" font-size="16" font-weight="700" fill="#202123">比较矩阵 · Runtime-Input Scheduling Matrix</text><text x="40" y="56" font-size="12" fill="#72757a">✓ 支持 · ✕ 无 / 未见 · ? 未公开或不可验证 · 边界与持久化列为简述</text><rect x="40" y="74" width="820" height="40" rx="8" fill="#202123"/><text x="106.0" y="99" font-size="11.5" font-weight="700" fill="#ffffff" text-anchor="middle">系统</text><text x="201.0" y="99" font-size="11.5" font-weight="700" fill="#ffffff" text-anchor="middle">Steer</text><text x="269.0" y="99" font-size="11.5" font-weight="700" fill="#ffffff" text-anchor="middle">Follow-up</text><text x="345.0" y="99" font-size="11.5" font-weight="700" fill="#ffffff" text-anchor="middle">Interrupt</text><text x="489.0" y="99" font-size="11.5" font-weight="700" fill="#ffffff" text-anchor="middle">Steer 交付边界</text><text x="633.0" y="99" font-size="11.5" font-weight="700" fill="#ffffff" text-anchor="middle">改推理中?</text><text x="765.0" y="99" font-size="11.5" font-weight="700" fill="#ffffff" text-anchor="middle">持久化</text><rect x="40" y="114" width="820" height="56" fill="#ffffff" stroke="#e7e6e3" stroke-width="1"/><rect x="50" y="131.0" width="5" height="22" rx="2" fill="#2563eb"/><text x="62" y="146.0" font-size="11.5" font-weight="700" fill="#202123">Codex</text><circle cx="201.0" cy="142.0" r="11" fill="#eaf8f1" stroke="#13795b" stroke-width="1.3"/><path d="M 196.0 142.0 l 3.5 4 l 6 -8" fill="none" stroke="#13795b" stroke-width="2" stroke-linecap="round" stroke-linejoin="round"/><circle cx="269.0" cy="142.0" r="11" fill="#eaf8f1" stroke="#13795b" stroke-width="1.3"/><path d="M 264.0 142.0 l 3.5 4 l 6 -8" fill="none" stroke="#13795b" stroke-width="2" stroke-linecap="round" stroke-linejoin="round"/><circle cx="345.0" cy="142.0" r="11" fill="#eaf8f1" stroke="#13795b" stroke-width="1.3"/><path d="M 340.0 142.0 l 3.5 4 l 6 -8" fill="none" stroke="#13795b" stroke-width="2" stroke-linecap="round" stroke-linejoin="round"/><text x="390" y="146.0" font-size="10.5" fill="#4b4d50">同一 turn 下一次采样前</text><circle cx="633.0" cy="142.0" r="11" fill="#fdeceb" stroke="#b42318" stroke-width="1.3"/><line x1="628.0" y1="137.0" x2="638.0" y2="147.0" stroke="#b42318" stroke-width="2" stroke-linecap="round"/><line x1="638.0" y1="137.0" x2="628.0" y2="147.0" stroke="#b42318" stroke-width="2" stroke-linecap="round"/><text x="678" y="146.0" font-size="10.5" fill="#4b4d50">会话历史持久；steer 多为活动 turn 态</text><rect x="40" y="170" width="820" height="56" fill="#faf9f7" stroke="#e7e6e3" stroke-width="1"/><rect x="50" y="187.0" width="5" height="22" rx="2" fill="#72757a"/><text x="62" y="202.0" font-size="11.5" font-weight="700" fill="#202123">Claude Code</text><circle cx="201.0" cy="198.0" r="11" fill="#eaf8f1" stroke="#13795b" stroke-width="1.3"/><path d="M 196.0 198.0 l 3.5 4 l 6 -8" fill="none" stroke="#13795b" stroke-width="2" stroke-linecap="round" stroke-linejoin="round"/><circle cx="269.0" cy="198.0" r="11" fill="#fff5e2" stroke="#a46108" stroke-width="1.3"/><text x="269.0" y="202.0" font-size="12" font-weight="700" fill="#a46108" text-anchor="middle">?</text><circle cx="345.0" cy="198.0" r="11" fill="#eaf8f1" stroke="#13795b" stroke-width="1.3"/><path d="M 340.0 198.0 l 3.5 4 l 6 -8" fill="none" stroke="#13795b" stroke-width="2" stroke-linecap="round" stroke-linejoin="round"/><text x="390" y="202.0" font-size="10.5" fill="#4b4d50">未公开（“停止并调整”）</text><circle cx="633.0" cy="198.0" r="11" fill="#fff5e2" stroke="#a46108" stroke-width="1.3"/><text x="633.0" y="202.0" font-size="12" font-weight="700" fill="#a46108" text-anchor="middle">?</text><text x="678" y="202.0" font-size="10.5" fill="#4b4d50">内部运行时未开源</text><rect x="40" y="226" width="820" height="56" fill="#ffffff" stroke="#e7e6e3" stroke-width="1"/><rect x="50" y="243.0" width="5" height="22" rx="2" fill="#a46108"/><text x="62" y="258.0" font-size="11.5" font-weight="700" fill="#202123">OpenCode 现行</text><circle cx="201.0" cy="254.0" r="11" fill="#fdeceb" stroke="#b42318" stroke-width="1.3"/><line x1="196.0" y1="249.0" x2="206.0" y2="259.0" stroke="#b42318" stroke-width="2" stroke-linecap="round"/><line x1="206.0" y1="249.0" x2="196.0" y2="259.0" stroke="#b42318" stroke-width="2" stroke-linecap="round"/><circle cx="269.0" cy="254.0" r="11" fill="#eaf8f1" stroke="#13795b" stroke-width="1.3"/><path d="M 264.0 254.0 l 3.5 4 l 6 -8" fill="none" stroke="#13795b" stroke-width="2" stroke-linecap="round" stroke-linejoin="round"/><circle cx="345.0" cy="254.0" r="11" fill="#eaf8f1" stroke="#13795b" stroke-width="1.3"/><path d="M 340.0 254.0 l 3.5 4 l 6 -8" fill="none" stroke="#13795b" stroke-width="2" stroke-linecap="round" stroke-linejoin="round"/><text x="390" y="258.0" font-size="10.5" fill="#4b4d50">当前普通 turn 完成后</text><circle cx="633.0" cy="254.0" r="11" fill="#fdeceb" stroke="#b42318" stroke-width="1.3"/><line x1="628.0" y1="249.0" x2="638.0" y2="259.0" stroke="#b42318" stroke-width="2" stroke-linecap="round"/><line x1="638.0" y1="249.0" x2="628.0" y2="259.0" stroke="#b42318" stroke-width="2" stroke-linecap="round"/><text x="678" y="258.0" font-size="10.5" fill="#4b4d50">本地队列；应用层可持久</text><rect x="40" y="282" width="820" height="56" fill="#faf9f7" stroke="#e7e6e3" stroke-width="1"/><rect x="50" y="299.0" width="5" height="22" rx="2" fill="#6941c6"/><text x="62" y="314.0" font-size="11.5" font-weight="700" fill="#202123">OpenCode V2</text><circle cx="201.0" cy="310.0" r="11" fill="#eaf8f1" stroke="#13795b" stroke-width="1.3"/><path d="M 196.0 310.0 l 3.5 4 l 6 -8" fill="none" stroke="#13795b" stroke-width="2" stroke-linecap="round" stroke-linejoin="round"/><circle cx="269.0" cy="310.0" r="11" fill="#eaf8f1" stroke="#13795b" stroke-width="1.3"/><path d="M 264.0 310.0 l 3.5 4 l 6 -8" fill="none" stroke="#13795b" stroke-width="2" stroke-linecap="round" stroke-linejoin="round"/><circle cx="345.0" cy="310.0" r="11" fill="#eaf8f1" stroke="#13795b" stroke-width="1.3"/><path d="M 340.0 310.0 l 3.5 4 l 6 -8" fill="none" stroke="#13795b" stroke-width="2" stroke-linecap="round" stroke-linejoin="round"/><text x="390" y="314.0" font-size="10.5" fill="#4b4d50">下一 safe provider-turn</text><circle cx="633.0" cy="310.0" r="11" fill="#fdeceb" stroke="#b42318" stroke-width="1.3"/><line x1="628.0" y1="305.0" x2="638.0" y2="315.0" stroke="#b42318" stroke-width="2" stroke-linecap="round"/><line x1="638.0" y1="305.0" x2="628.0" y2="315.0" stroke="#b42318" stroke-width="2" stroke-linecap="round"/><text x="678" y="314.0" font-size="10.5" fill="#4b4d50">durable admission inbox</text><rect x="40" y="338" width="820" height="56" fill="#ffffff" stroke="#e7e6e3" stroke-width="1"/><rect x="50" y="355.0" width="5" height="22" rx="2" fill="#13795b"/><text x="62" y="370.0" font-size="11.5" font-weight="700" fill="#202123">Pi</text><circle cx="201.0" cy="366.0" r="11" fill="#eaf8f1" stroke="#13795b" stroke-width="1.3"/><path d="M 196.0 366.0 l 3.5 4 l 6 -8" fill="none" stroke="#13795b" stroke-width="2" stroke-linecap="round" stroke-linejoin="round"/><circle cx="269.0" cy="366.0" r="11" fill="#eaf8f1" stroke="#13795b" stroke-width="1.3"/><path d="M 264.0 366.0 l 3.5 4 l 6 -8" fill="none" stroke="#13795b" stroke-width="2" stroke-linecap="round" stroke-linejoin="round"/><circle cx="345.0" cy="366.0" r="11" fill="#eaf8f1" stroke="#13795b" stroke-width="1.3"/><path d="M 340.0 366.0 l 3.5 4 l 6 -8" fill="none" stroke="#13795b" stroke-width="2" stroke-linecap="round" stroke-linejoin="round"/><text x="390" y="370.0" font-size="10.5" fill="#4b4d50">工具调用完成后、下次 LLM 前</text><circle cx="633.0" cy="366.0" r="11" fill="#fdeceb" stroke="#b42318" stroke-width="1.3"/><line x1="628.0" y1="361.0" x2="638.0" y2="371.0" stroke="#b42318" stroke-width="2" stroke-linecap="round"/><line x1="638.0" y1="361.0" x2="628.0" y2="371.0" stroke="#b42318" stroke-width="2" stroke-linecap="round"/><text x="678" y="370.0" font-size="10.5" fill="#4b4d50">消息进会话历史后持久</text><line x1="172" y1="74" x2="172" y2="394" stroke="#e7e6e3" stroke-width="1"/><line x1="230" y1="74" x2="230" y2="394" stroke="#e7e6e3" stroke-width="1"/><line x1="308" y1="74" x2="308" y2="394" stroke="#e7e6e3" stroke-width="1"/><line x1="382" y1="74" x2="382" y2="394" stroke="#e7e6e3" stroke-width="1"/><line x1="596" y1="74" x2="596" y2="394" stroke="#e7e6e3" stroke-width="1"/><line x1="670" y1="74" x2="670" y2="394" stroke="#e7e6e3" stroke-width="1"/><text x="40" y="420" font-size="10.5" fill="#72757a">注：没有任何系统能改写已经开始的单次 LLM token 流；“快”来自结束/唤醒当前步骤并重新采样。</text></svg>