<svg xmlns="http://www.w3.org/2000/svg" width="900" height="460" viewBox="0 0 900 460" font-family="system-ui, 'Noto Sans SC', 'Microsoft YaHei', sans-serif" role="img" aria-label="raw 总参数估计 vs IKP effective 参数（对数轴，B）"><rect width="900" height="460" fill="#ffffff"/><text x="170" y="24" font-size="15" font-weight="700" fill="#3c2a21">raw 总参数 vs IKP effective（对数轴 · B）</text><line x1="515.0" y1="46" x2="515.0" y2="400" stroke="#e5e1d8" stroke-width="1"/><text x="515.0" y="416" font-size="10" fill="#71573f" text-anchor="middle">100</text><line x1="597.3034164391418" y1="46" x2="597.3034164391418" y2="400" stroke="#e5e1d8" stroke-width="1"/><text x="597.3034164391418" y="416" font-size="10" fill="#71573f" text-anchor="middle">300</text><line x1="687.5" y1="46" x2="687.5" y2="400" stroke="#e5e1d8" stroke-width="1"/><text x="687.5" y="416" font-size="10" fill="#71573f" text-anchor="middle">1,000</text><line x1="769.8034164391418" y1="46" x2="769.8034164391418" y2="400" stroke="#e5e1d8" stroke-width="1"/><text x="769.8034164391418" y="416" font-size="10" fill="#71573f" text-anchor="middle">3,000</text><line x1="860.0" y1="46" x2="860.0" y2="400" stroke="#e5e1d8" stroke-width="1"/><text x="860.0" y="416" font-size="10" fill="#71573f" text-anchor="middle">10,000</text><rect x="170" y="57.12571428571428" width="638.0723257479632" height="25.285714285714285" fill="#4f46e5" rx="2" opacity="0.85"/><text x="160" y="76.09" font-size="11" fill="#3c2a21" text-anchor="end">GPT-5.6 Sol</text><rect x="170" y="84.41142857142856" width="566.758635803841" height="25.285714285714285" fill="#b45309" rx="2" opacity="0.8"/><rect x="170" y="107.69714285714285" width="569.4276742520368" height="25.285714285714285" fill="#4f46e5" rx="2" opacity="0.85"/><text x="160" y="126.66142857142856" font-size="11" fill="#3c2a21" text-anchor="end">GPT-5.6 Terra</text><rect x="170" y="134.98285714285714" width="490.9931518423914" height="25.285714285714285" fill="#b45309" rx="2" opacity="0.8"/><rect x="170" y="158.26857142857142" width="552.710697008147" height="25.285714285714285" fill="#4f46e5" rx="2" opacity="0.85"/><text x="160" y="177.23285714285714" font-size="11" fill="#3c2a21" text-anchor="end">GPT-5.6 Luna</text><rect x="170" y="185.5542857142857" width="495.3463313816641" height="25.285714285714285" fill="#b45309" rx="2" opacity="0.8"/><rect x="170" y="208.84" width="668.4480679350683" height="25.285714285714285" fill="#4f46e5" rx="2" opacity="0.85"/><text x="160" y="227.80428571428573" font-size="11" fill="#3c2a21" text-anchor="end">Claude Fable 5</text><rect x="170" y="236.12571428571428" width="573.082828341601" height="25.285714285714285" fill="#b45309" rx="2" opacity="0.8"/><rect x="170" y="259.4114285714286" width="638.0723257479632" height="25.285714285714285" fill="#4f46e5" rx="2" opacity="0.85"/><text x="160" y="278.3757142857143" font-size="11" fill="#3c2a21" text-anchor="end">Claude Opus 5</text><rect x="170" y="286.69714285714286" width="573.082828341601" height="25.285714285714285" fill="#b45309" rx="2" opacity="0.8"/><rect x="170" y="309.98285714285714" width="542.7070861544961" height="25.285714285714285" fill="#4f46e5" rx="2" opacity="0.85"/><text x="160" y="328.94714285714286" font-size="11" fill="#3c2a21" text-anchor="end">Claude Sonnet 5</text><rect x="170" y="337.2685714285714" width="515.3724306997824" height="25.285714285714285" fill="#b45309" rx="2" opacity="0.8"/><rect x="170" y="360.55428571428575" width="375.37574218710506" height="25.285714285714285" fill="#4f46e5" rx="2" opacity="0.85"/><text x="160" y="379.5185714285715" font-size="11" fill="#3c2a21" text-anchor="end">Claude Haiku 4.5</text><rect x="170" y="387.84000000000003" width="1" height="25.285714285714285" fill="#b45309"/><text x="176" y="428.8257142857143" font-size="10" fill="#71573f">Haiku：无 IKP 点估计</text><g font-size="11"><rect x="620" y="418" width="12" height="12" fill="#4f46e5" rx="2"/><text x="638" y="429" fill="#3c2a21">raw 总参数</text><rect x="740" y="418" width="12" height="12" fill="#b45309" rx="2"/><text x="758" y="429" fill="#3c2a21">IKP effective</text></g></svg>